<svg width="28" height="28" viewBox="0 0 28 28" fill="none" xmlns="http://www.w3.org/2000/svg">
<path fill-rule="evenodd" clip-rule="evenodd" d="M12.7453 2.52294C12.9892 2.52256 13.2515 2.52268 13.5346 2.52281C13.6842 2.52287 13.8397 2.52294 14.0012 2.52294C17.7392 2.52294 18.1823 2.53636 19.6584 2.60344C21.0234 2.66586 21.7642 2.89394 22.2577 3.08557C22.9111 3.33932 23.3769 3.64265 23.8666 4.13265C24.3566 4.62265 24.6599 5.08932 24.9142 5.74265C25.1059 6.23557 25.3342 6.9764 25.3964 8.3414C25.4634 9.81724 25.478 10.2606 25.478 13.9968C25.478 17.7331 25.4634 18.1764 25.3964 19.6522C25.3339 21.0172 25.1059 21.7581 24.9142 22.251C24.6605 22.9043 24.3566 23.3695 23.8666 23.8592C23.3766 24.3492 22.9114 24.6526 22.2577 24.9063C21.7648 25.0988 21.0234 25.3263 19.6584 25.3887C18.1826 25.4558 17.7392 25.4704 14.0012 25.4704C10.2629 25.4704 9.81989 25.4558 8.34406 25.3887C6.97906 25.3257 6.23823 25.0977 5.74444 24.906C5.0911 24.6523 4.62444 24.3489 4.13444 23.8589C3.64444 23.3689 3.3411 22.9034 3.08677 22.2498C2.89514 21.7569 2.66677 21.0161 2.60464 19.6511C2.53756 18.1752 2.52414 17.7319 2.52414 13.9933C2.52414 10.2547 2.53756 9.81374 2.60464 8.3379C2.66706 6.9729 2.89514 6.23207 3.08677 5.73857C3.34052 5.08524 3.64444 4.61857 4.13444 4.12857C4.62444 3.63857 5.0911 3.33524 5.74444 3.0809C6.23794 2.8884 6.97906 2.6609 8.34406 2.59819C9.63556 2.53986 10.1361 2.52236 12.7453 2.51944V2.52294ZM19.7941 6.52706C19.7941 5.59927 20.5466 4.84764 21.4741 4.84764C22.4016 4.84764 23.1541 5.59956 23.1541 6.52706C23.1541 7.45456 22.4016 8.20706 21.4741 8.20706C20.5466 8.20706 19.7941 7.45456 19.7941 6.52706ZM6.81151 13.9998C6.81151 10.0294 10.0306 6.81023 14.0011 6.81023C17.9716 6.81023 21.1895 10.0294 21.1895 13.9998C21.1895 17.9703 17.9716 21.1879 14.0011 21.1879C10.0306 21.1879 6.81151 17.9703 6.81151 13.9998Z" fill="#3B3B93"/>
<path d="M14.001 9.33352C16.5782 9.33352 18.6677 11.4227 18.6677 14.0002C18.6677 16.5774 16.5782 18.6669 14.001 18.6669C11.4236 18.6669 9.33438 16.5774 9.33438 14.0002C9.33438 11.4227 11.4236 9.33352 14.001 9.33352Z" fill="#3B3B93"/>
<path fill-rule="evenodd" clip-rule="evenodd" d="M14.0012 0C10.199 0 9.72183 0.016625 8.2285 0.0845833C6.73808 0.152833 5.72075 0.388792 4.83058 0.735C3.90979 1.09258 3.12871 1.57092 2.35054 2.34938C1.57179 3.12754 1.09346 3.90863 0.734708 4.82912C0.387625 5.71958 0.151375 6.73721 0.0842917 8.22704C0.0175 9.72038 0 10.1978 0 14C0 17.8022 0.0169167 18.2779 0.0845833 19.7712C0.153125 21.2616 0.389083 22.279 0.735 23.1691C1.09288 24.0899 1.57121 24.871 2.34967 25.6492C3.12754 26.4279 3.90863 26.9074 4.82883 27.265C5.71958 27.6112 6.73721 27.8472 8.22733 27.9154C9.72067 27.9834 10.1975 28 13.9994 28C17.8019 28 18.2776 27.9834 19.7709 27.9154C21.2613 27.8472 22.2798 27.6112 23.1706 27.265C24.0911 26.9074 24.871 26.4279 25.6489 25.6492C26.4276 24.871 26.906 24.0899 27.2647 23.1694C27.6089 22.279 27.8451 21.2613 27.9151 19.7715C27.9822 18.2782 27.9997 17.8022 27.9997 14C27.9997 10.1978 27.9822 9.72067 27.9151 8.22733C27.8451 6.73692 27.6089 5.71958 27.2647 4.82942C26.906 3.90863 26.4276 3.12754 25.6489 2.34938C24.8701 1.57063 24.0914 1.09229 23.1697 0.735C22.2772 0.388792 21.2593 0.152833 19.7689 0.0845833C18.2755 0.016625 17.8001 0 13.9968 0H14.0012ZM12.7453 2.52294C12.9892 2.52256 13.2515 2.52268 13.5346 2.52281L14.0012 2.52294C17.7392 2.52294 18.1823 2.53636 19.6584 2.60344C21.0234 2.66586 21.7642 2.89394 22.2577 3.08557C22.9111 3.33932 23.3769 3.64265 23.8666 4.13265C24.3566 4.62265 24.6599 5.08932 24.9142 5.74265C25.1059 6.23557 25.3342 6.9764 25.3964 8.3414C25.4634 9.81724 25.478 10.2606 25.478 13.9968C25.478 17.7331 25.4634 18.1764 25.3964 19.6522C25.3339 21.0172 25.1059 21.7581 24.9142 22.251C24.6605 22.9043 24.3566 23.3695 23.8666 23.8592C23.3766 24.3492 22.9114 24.6526 22.2577 24.9063C21.7648 25.0988 21.0234 25.3263 19.6584 25.3887C18.1826 25.4558 17.7392 25.4704 14.0012 25.4704C10.2629 25.4704 9.81989 25.4558 8.34406 25.3887C6.97906 25.3257 6.23823 25.0977 5.74444 24.906C5.0911 24.6523 4.62444 24.3489 4.13444 23.8589C3.64444 23.3689 3.3411 22.9034 3.08677 22.2498C2.89514 21.7569 2.66677 21.0161 2.60464 19.6511C2.53756 18.1752 2.52414 17.7319 2.52414 13.9933C2.52414 10.2547 2.53756 9.81374 2.60464 8.3379C2.66706 6.9729 2.89514 6.23207 3.08677 5.73857C3.34052 5.08524 3.64444 4.61857 4.13444 4.12857C4.62444 3.63857 5.0911 3.33524 5.74444 3.0809C6.23794 2.8884 6.97906 2.6609 8.34406 2.59819C9.63556 2.53986 10.1361 2.52236 12.7453 2.51944V2.52294Z" fill="#3B3B93"/>
</svg>
