<svg width="99" height="158" viewBox="0 0 99 158" fill="none" xmlns="http://www.w3.org/2000/svg">
<path d="M92.4001 48.7168C92.4001 72.7137 72.8977 92.1669 48.8401 92.1669C24.7824 92.1669 5.28001 72.7137 5.28001 48.7168C5.28001 24.7199 24.7824 5.26668 48.8401 5.26668C72.8977 5.26668 92.4001 24.7199 92.4001 48.7168Z" fill="#FFAD5E"/>
<path d="M49.5027 0C22.208 0 0 21.998 0 49.0346V49.3884C0 62.4863 5.14847 74.7995 14.4987 84.064L18.7555 88.2819C33.3617 102.749 42.7428 121.083 45.8837 141.307C46.1617 143.088 47.6818 144.382 49.5 144.382C51.3182 144.382 52.841 143.088 53.1163 141.307C56.2599 121.083 65.641 102.749 80.2445 88.2819L84.5013 84.064C93.8515 74.8022 99 62.4863 99 49.3884V49.0346C99.0054 21.998 76.7974 0 49.5027 0ZM49.5027 87.1725C28.2709 87.1725 11.0006 70.0655 11.0006 49.0346C11.0006 28.0036 28.2709 10.8966 49.5027 10.8966C70.7344 10.8966 88.0048 28.0036 88.0048 49.0346C88.0048 70.0655 70.7344 87.1725 49.5027 87.1725Z" fill="#FFAD5E"/>
<path d="M64.8593 127.494C63.4682 127.062 62.0133 127.859 61.591 129.253C61.1313 130.77 62.07 132.336 63.5784 132.825C69.96 134.894 74.2525 138.272 74.2525 141.655C74.2525 146.809 64.0885 152.552 49.5012 152.552C34.9138 152.552 24.7498 146.809 24.7498 141.655C24.7498 138.273 29.0406 134.893 35.4221 132.827C36.9325 132.339 37.8737 130.772 37.4129 129.252C36.9901 127.859 35.5349 127.062 34.1438 127.493C25.0093 130.326 19.2495 135.614 19.2495 141.655C19.2495 150.818 32.5383 158 49.5012 158C66.464 158 79.7528 150.818 79.7528 141.655C79.7528 135.617 73.9933 130.329 64.8593 127.494Z" fill="#FFAD5E"/>
<path d="M62.3381 73.7337C58.6762 73.7337 55.0994 72.4156 52.3742 69.7793L40.5368 58.7399C38.2374 56.5979 36.7897 53.7145 36.5342 50.831C36.4491 50.2544 36.4491 49.6777 36.5342 49.101C36.8749 42.0984 43.0065 36.4139 50.2452 36.4139H50.3304C57.8246 36.4963 63.9562 42.4279 63.9562 49.6777V49.7601C63.9562 53.1378 62.5936 56.3508 60.0388 58.6575L56.7175 61.7881C55.8659 62.6119 54.5033 62.5295 53.6517 61.7057C52.8 60.8819 52.8852 59.5637 53.7368 58.7399L57.0581 55.6093C58.6762 54.044 59.613 51.9844 59.613 49.7601V49.6777C59.613 44.6523 55.4401 40.6154 50.2452 40.5331H50.16C45.1355 40.5331 40.8775 44.4051 40.7071 49.2658C40.7071 49.6777 40.7071 50.0896 40.7071 50.5015C40.8775 52.3963 41.8142 54.2912 43.4323 55.7741L55.2697 66.8135C58.1652 69.5322 62.253 70.2736 66.0852 68.8731C69.7472 67.4726 72.0465 64.4244 72.302 60.7171C72.302 60.47 72.302 60.2228 72.302 59.9757V42.016C72.302 40.6978 71.7059 39.4621 70.6839 38.5558L53.311 23.7268C51.5226 22.1615 48.7975 22.1615 47.0091 23.7268L29.6361 38.5558C28.6142 39.4621 28.0181 40.6978 28.0181 42.016V60.058C28.0181 60.3052 28.0181 60.5523 28.0181 60.7995C28.1884 64.0125 29.9768 66.7311 32.8723 68.2964C35.9381 69.9441 39.6852 70.0265 42.6658 68.4612C43.0065 68.2964 43.3471 68.1316 43.6026 67.8845C44.4542 67.3078 45.6465 67.4726 46.3278 68.1316C47.2646 69.0379 47.0942 70.5208 46.0723 71.2622C45.6465 71.5918 45.1355 71.8389 44.6246 72.0861C40.3665 74.3104 35.0013 74.1457 30.7432 71.8389C26.6555 69.6146 24.1007 65.6601 23.76 60.9643C23.76 60.6347 23.76 60.3052 23.76 60.058V42.016C23.76 39.4621 24.8671 37.0729 26.8258 35.4253L44.1987 20.5962C47.6052 17.7127 52.7149 17.7127 56.1213 20.5962L73.4943 35.4253C75.453 37.0729 76.5601 39.4621 76.5601 42.016V60.058C76.5601 60.3876 76.5601 60.7171 76.5601 60.9643C76.2194 66.2368 72.813 70.7679 67.6181 72.7451C65.9149 73.4042 64.1265 73.7337 62.3381 73.7337Z" fill="white"/>
</svg>
