<svg width="24" height="12" viewBox="0 0 24 12" fill="none" xmlns="http://www.w3.org/2000/svg">
<path d="M17.5712 0.416395C17.0426 0.251778 16.4897 0.55458 16.3295 1.08452C16.1556 1.66029 16.5116 2.25427 17.0836 2.44019C19.5004 3.22571 21.1259 4.50855 21.1259 5.79295C21.1259 7.75028 17.2759 9.93087 11.7504 9.93087C6.22494 9.93087 2.37495 7.75028 2.37495 5.79295C2.37495 4.5088 3.99983 3.22543 6.41652 2.44105C6.98935 2.25512 7.34631 1.6609 7.17194 1.08445C7.01167 0.5546 6.45855 0.251592 5.93 0.416077C2.47188 1.49224 0.291504 3.49967 0.291504 5.79295C0.291504 9.2727 5.32514 11.9998 11.7504 11.9998C18.1758 11.9998 23.2094 9.2727 23.2094 5.79295C23.2094 3.50066 21.0291 1.49336 17.5712 0.416395Z" fill="#3B3B93"/>
</svg>
