<svg width="38" height="60" viewBox="0 0 38 60" fill="none" xmlns="http://www.w3.org/2000/svg">
<path d="M35 18.5C35 27.6127 27.6127 35 18.5 35C9.38727 35 2 27.6127 2 18.5C2 9.38727 9.38727 2 18.5 2C27.6127 2 35 9.38727 35 18.5Z" fill="#3B3B93"/>
<path d="M18.751 0C8.41211 0 0 8.35364 0 18.6207V18.755C0 23.7289 1.95018 28.4048 5.49193 31.9229L7.10436 33.5247C12.637 39.0183 16.1904 45.9809 17.3802 53.6607C17.4855 54.337 18.0613 54.8285 18.75 54.8285C19.4387 54.8285 20.0155 54.337 20.1198 53.6607C21.3105 45.9809 24.864 39.0183 30.3956 33.5247L32.008 31.9229C35.5498 28.4058 37.5 23.7289 37.5 18.755V18.6207C37.502 8.35364 29.0899 0 18.751 0ZM18.751 33.1034C10.7087 33.1034 4.16689 26.6071 4.16689 18.6207C4.16689 10.6342 10.7087 4.13793 18.751 4.13793C26.7933 4.13793 33.3351 10.6342 33.3351 18.6207C33.3351 26.6071 26.7933 33.1034 18.751 33.1034Z" fill="#3B3B93"/>
<path d="M24.5712 48.4164C24.0426 48.2518 23.4897 48.5546 23.3295 49.0845C23.1556 49.6603 23.5116 50.2543 24.0836 50.4402C26.5004 51.2257 28.1259 52.5085 28.1259 53.7929C28.1259 55.7503 24.2759 57.9309 18.7504 57.9309C13.2249 57.9309 9.37495 55.7503 9.37495 53.7929C9.37495 52.5088 10.9998 51.2254 13.4165 50.441C13.9894 50.2551 14.3463 49.6609 14.1719 49.0844C14.0117 48.5546 13.4586 48.2516 12.93 48.4161C9.47188 49.4922 7.2915 51.4997 7.2915 53.7929C7.2915 57.2727 12.3251 59.9998 18.7504 59.9998C25.1758 59.9998 30.2094 57.2727 30.2094 53.7929C30.2094 51.5007 28.0291 49.4934 24.5712 48.4164Z" fill="#3B3B93"/>
<path d="M23.6129 28C22.2258 28 20.871 27.4994 19.8387 26.4983L15.3548 22.3061C14.4839 21.4927 13.9355 20.3978 13.8387 19.3028C13.8065 19.0838 13.8065 18.8648 13.8387 18.6458C13.9677 15.9866 16.2903 13.8279 19.0323 13.8279H19.0645C21.9032 13.8592 24.2258 16.1117 24.2258 18.8648V18.8961C24.2258 20.1788 23.7097 21.3989 22.7419 22.2749L21.4839 23.4637C21.1613 23.7765 20.6452 23.7453 20.3226 23.4324C20 23.1196 20.0323 22.619 20.3548 22.3061L21.6129 21.1173C22.2258 20.5229 22.5806 19.7408 22.5806 18.8961V18.8648C22.5806 16.9564 21 15.4235 19.0323 15.3922H19C17.0968 15.3922 15.4839 16.8626 15.4194 18.7084C15.4194 18.8648 15.4194 19.0212 15.4194 19.1777C15.4839 19.8972 15.8387 20.6168 16.4516 21.1799L20.9355 25.3721C22.0323 26.4045 23.5806 26.686 25.0323 26.1542C26.4194 25.6223 27.2903 24.4648 27.3871 23.057C27.3871 22.9631 27.3871 22.8693 27.3871 22.7754V15.9553C27.3871 15.4547 27.1613 14.9855 26.7742 14.6413L20.1935 9.01006C19.5161 8.41564 18.4839 8.41564 17.8065 9.01006L11.2258 14.6413C10.8387 14.9855 10.6129 15.4547 10.6129 15.9553V22.8067C10.6129 22.9006 10.6129 22.9944 10.6129 23.0883C10.6774 24.3084 11.3548 25.3408 12.4516 25.9352C13.6129 26.5609 15.0323 26.5922 16.1613 25.9978C16.2903 25.9352 16.4194 25.8726 16.5161 25.7788C16.8387 25.5598 17.2903 25.6223 17.5484 25.8726C17.9032 26.2168 17.8387 26.7799 17.4516 27.0615C17.2903 27.1866 17.0968 27.2804 16.9032 27.3743C15.2903 28.219 13.2581 28.1564 11.6452 27.2804C10.0968 26.4358 9.12903 24.9341 9 23.1508C9 23.0257 9 22.9006 9 22.8067V15.9553C9 14.9855 9.41935 14.0782 10.1613 13.4525L16.7419 7.82123C18.0323 6.72626 19.9677 6.72626 21.2581 7.82123L27.8387 13.4525C28.5806 14.0782 29 14.9855 29 15.9553V22.8067C29 22.9318 29 23.057 29 23.1508C28.871 25.1531 27.5806 26.8737 25.6129 27.6246C24.9677 27.8749 24.2903 28 23.6129 28Z" fill="white"/>
</svg>
