<svg>

  <symbol id="logo" width="33" height="35" viewBox="0 0 33 35" fill="none" xmlns="http://www.w3.org/2000/svg">
    <path
      d="M23.7699 35C21.5136 35 19.3098 34.1657 17.6307 32.4972L10.337 25.5102C8.92028 24.1546 8.02825 22.3296 7.87084 20.5047C7.81837 20.1397 7.81837 19.7747 7.87084 19.4097C8.08073 14.9777 11.8587 11.3799 16.3189 11.3799H16.3713C20.9889 11.432 24.7669 15.1862 24.7669 19.7747V19.8268C24.7669 21.9646 23.9273 23.9981 22.3532 25.4581L20.3068 27.4395C19.782 27.9609 18.9425 27.9088 18.4178 27.3873C17.893 26.8659 17.9455 26.0317 18.4702 25.5102L20.5166 23.5289C21.5136 22.5382 22.0908 21.2346 22.0908 19.8268V19.7747C22.0908 16.594 19.5197 14.0391 16.3189 13.987H16.2664C13.1705 13.987 10.5469 16.4376 10.442 19.514C10.442 19.7747 10.442 20.0354 10.442 20.2961C10.5469 21.4953 11.1241 22.6946 12.1211 23.6331L19.4147 30.6201C21.1988 32.3408 23.7175 32.8101 26.0787 31.9237C28.335 31.0372 29.7518 29.108 29.9092 26.7616C29.9092 26.6052 29.9092 26.4488 29.9092 26.2924V14.9255C29.9092 14.0912 29.5419 13.3091 28.9122 12.7356L18.2079 3.35009C17.106 2.3594 15.4268 2.3594 14.3249 3.35009L3.62059 12.7356C2.99092 13.3091 2.62361 14.0912 2.62361 14.9255V26.3445C2.62361 26.5009 2.62361 26.6574 2.62361 26.8138C2.72856 28.8473 3.83047 30.568 5.61453 31.5587C7.50353 32.6015 9.81231 32.6536 11.6488 31.6629C11.8587 31.5587 12.0686 31.4544 12.226 31.298C12.7508 30.933 13.4854 31.0372 13.9051 31.4544C14.4823 32.0279 14.3774 32.9665 13.7477 33.4358C13.4854 33.6443 13.1705 33.8007 12.8557 33.9572C10.2321 35.365 6.92634 35.2607 4.30272 33.8007C1.78406 32.3929 0.209889 29.8901 0 26.9181C0 26.7095 0 26.5009 0 26.3445V14.9255C0 13.3091 0.682139 11.797 1.889 10.7542L12.5933 1.36872C14.6922 -0.456238 17.8406 -0.456238 19.9395 1.36872L30.6438 10.7542C31.8507 11.797 32.5328 13.3091 32.5328 14.9255V26.3445C32.5328 26.5531 32.5328 26.7616 32.5328 26.9181C32.3229 30.2551 30.224 33.1229 27.0232 34.3743C25.9738 34.7914 24.8718 35 23.7699 35Z"
      fill="#FFAD5E" />
  </symbol>


  <symbol id="dollar--active" width="10" height="19" viewBox="0 0 10 19" fill="none" xmlns="http://www.w3.org/2000/svg">
    <path
      d="M1.14988 12.9904C1.14988 14.9182 2.79862 16.4812 4.8323 16.4812C6.86597 16.4812 8.51471 14.9182 8.51471 12.9904C8.51471 11.0625 6.86597 9.49961 4.8323 9.49961H4.68241C2.64874 9.49961 0.999999 7.93667 0.999999 6.00883C0.999999 4.08099 2.64874 2.51805 4.68241 2.51805C6.71608 2.51805 8.36482 4.08099 8.36482 6.00883"
      stroke="#FFAD5E" stroke-miterlimit="10" stroke-linecap="round" stroke-linejoin="round" />
    <path d="M4.6825 1.00001V18" stroke="#FFAD5E" stroke-miterlimit="10" stroke-linecap="round"
      stroke-linejoin="round" />
  </symbol>

  <symbol id="dollar" width="10" height="19" viewBox="0 0 10 19" fill="none" xmlns="http://www.w3.org/2000/svg">
    <path
      d="M1.14988 12.9904C1.14988 14.9182 2.79862 16.4812 4.8323 16.4812C6.86597 16.4812 8.51471 14.9182 8.51471 12.9904C8.51471 11.0625 6.86597 9.49961 4.8323 9.49961H4.68241C2.64874 9.49961 0.999999 7.93667 0.999999 6.00883C0.999999 4.08099 2.64874 2.51805 4.68241 2.51805C6.71608 2.51805 8.36482 4.08099 8.36482 6.00883"
      stroke="white" stroke-miterlimit="10" stroke-linecap="round" stroke-linejoin="round" />
    <path d="M4.6825 1.00001V18" stroke="white" stroke-miterlimit="10" stroke-linecap="round" stroke-linejoin="round" />
  </symbol>

  <symbol id="hryvnya--active" width="13" height="15" viewBox="0 0 13 15" fill="none"
    xmlns="http://www.w3.org/2000/svg">
    <path
      d="M9.52394 10.9914C9.52394 12.9192 7.8752 14.4821 5.84153 14.4821C3.80786 14.4821 2.15912 12.9192 2.15912 10.9914C2.15912 9.06353 3.80786 7.50059 5.84153 7.50059H5.99142C8.02509 7.50059 9.67383 5.93765 9.67383 4.00981C9.67383 2.08197 8.02509 0.51903 5.99142 0.51903C3.95774 0.51903 2.309 2.08197 2.309 4.00981"
      stroke="#FFAD5E" stroke-miterlimit="10" stroke-linecap="round" stroke-linejoin="round" />
    <path d="M12 5.94531L0.518873 5.94531" stroke="#FFAD5E" stroke-miterlimit="10" stroke-linecap="round"
      stroke-linejoin="round" />
    <path d="M12 9.0542L0.518873 9.0542" stroke="#FFAD5E" stroke-miterlimit="10" stroke-linecap="round"
      stroke-linejoin="round" />
  </symbol>

  <symbol id="hryvnya" width="13" height="15" viewBox="0 0 13 15" fill="none" xmlns="http://www.w3.org/2000/svg">
    <path
      d="M9.52394 10.9914C9.52394 12.9192 7.8752 14.4821 5.84153 14.4821C3.80786 14.4821 2.15912 12.9192 2.15912 10.9914C2.15912 9.06353 3.80786 7.50059 5.84153 7.50059H5.99142C8.02509 7.50059 9.67383 5.93765 9.67383 4.00981C9.67383 2.08197 8.02509 0.51903 5.99142 0.51903C3.95774 0.51903 2.309 2.08197 2.309 4.00981"
      stroke="white" stroke-miterlimit="10" stroke-linecap="round" stroke-linejoin="round" />
    <path d="M12 5.94531L0.518873 5.94531" stroke="white" stroke-miterlimit="10" stroke-linecap="round"
      stroke-linejoin="round" />
    <path d="M12 9.0542L0.518873 9.0542" stroke="white" stroke-miterlimit="10" stroke-linecap="round"
      stroke-linejoin="round" />
  </symbol>

  <symbol id="rating-star" width="16" height="15" viewBox="0 0 16 15" fill="none" xmlns="http://www.w3.org/2000/svg">
    <path
      d="M8 0L10.116 5.08754L15.6085 5.52786L11.4238 9.11246L12.7023 14.4721L8 11.6L3.29772 14.4721L4.5762 9.11246L0.391548 5.52786L5.88397 5.08754L8 0Z"
      fill="white" />
  </symbol>

  <symbol id="rating-star-yellow" width="18" height="16" viewBox="0 0 18 16" fill="none"
    xmlns="http://www.w3.org/2000/svg">
    <path
      d="M8.71655 0L11.0221 5.40551L17.0065 5.87336L12.447 9.68199L13.84 15.3766L8.71655 12.325L3.59309 15.3766L4.98608 9.68199L0.426619 5.87336L6.41099 5.40551L8.71655 0Z"
      fill="#FFD000" />
  </symbol>


  <symbol id="map-icon" width="38" height="60" viewBox="0 0 38 60" fill="none" xmlns="http://www.w3.org/2000/svg">
    <path
      d="M35 18.5C35 27.6127 27.6127 35 18.5 35C9.38727 35 2 27.6127 2 18.5C2 9.38727 9.38727 2 18.5 2C27.6127 2 35 9.38727 35 18.5Z"
      fill="#3B3B93" />
    <path
      d="M18.751 0C8.41211 0 0 8.35364 0 18.6207V18.755C0 23.7289 1.95018 28.4048 5.49193 31.9229L7.10436 33.5247C12.637 39.0183 16.1904 45.9809 17.3802 53.6607C17.4855 54.337 18.0613 54.8285 18.75 54.8285C19.4387 54.8285 20.0155 54.337 20.1198 53.6607C21.3105 45.9809 24.864 39.0183 30.3956 33.5247L32.008 31.9229C35.5498 28.4058 37.5 23.7289 37.5 18.755V18.6207C37.502 8.35364 29.0899 0 18.751 0ZM18.751 33.1034C10.7087 33.1034 4.16689 26.6071 4.16689 18.6207C4.16689 10.6342 10.7087 4.13793 18.751 4.13793C26.7933 4.13793 33.3351 10.6342 33.3351 18.6207C33.3351 26.6071 26.7933 33.1034 18.751 33.1034Z"
      fill="#3B3B93" />
    <path
      d="M24.5712 48.4164C24.0426 48.2518 23.4897 48.5546 23.3295 49.0845C23.1556 49.6603 23.5116 50.2543 24.0836 50.4402C26.5004 51.2257 28.1259 52.5085 28.1259 53.7929C28.1259 55.7503 24.2759 57.9309 18.7504 57.9309C13.2249 57.9309 9.37495 55.7503 9.37495 53.7929C9.37495 52.5088 10.9998 51.2254 13.4165 50.441C13.9894 50.2551 14.3463 49.6609 14.1719 49.0844C14.0117 48.5546 13.4586 48.2516 12.93 48.4161C9.47188 49.4922 7.2915 51.4997 7.2915 53.7929C7.2915 57.2727 12.3251 59.9998 18.7504 59.9998C25.1758 59.9998 30.2094 57.2727 30.2094 53.7929C30.2094 51.5007 28.0291 49.4934 24.5712 48.4164Z"
      fill="#3B3B93" />
    <path
      d="M23.6129 28C22.2258 28 20.871 27.4994 19.8387 26.4983L15.3548 22.3061C14.4839 21.4927 13.9355 20.3978 13.8387 19.3028C13.8065 19.0838 13.8065 18.8648 13.8387 18.6458C13.9677 15.9866 16.2903 13.8279 19.0323 13.8279H19.0645C21.9032 13.8592 24.2258 16.1117 24.2258 18.8648V18.8961C24.2258 20.1788 23.7097 21.3989 22.7419 22.2749L21.4839 23.4637C21.1613 23.7765 20.6452 23.7453 20.3226 23.4324C20 23.1196 20.0323 22.619 20.3548 22.3061L21.6129 21.1173C22.2258 20.5229 22.5806 19.7408 22.5806 18.8961V18.8648C22.5806 16.9564 21 15.4235 19.0323 15.3922H19C17.0968 15.3922 15.4839 16.8626 15.4194 18.7084C15.4194 18.8648 15.4194 19.0212 15.4194 19.1777C15.4839 19.8972 15.8387 20.6168 16.4516 21.1799L20.9355 25.3721C22.0323 26.4045 23.5806 26.686 25.0323 26.1542C26.4194 25.6223 27.2903 24.4648 27.3871 23.057C27.3871 22.9631 27.3871 22.8693 27.3871 22.7754V15.9553C27.3871 15.4547 27.1613 14.9855 26.7742 14.6413L20.1935 9.01006C19.5161 8.41564 18.4839 8.41564 17.8065 9.01006L11.2258 14.6413C10.8387 14.9855 10.6129 15.4547 10.6129 15.9553V22.8067C10.6129 22.9006 10.6129 22.9944 10.6129 23.0883C10.6774 24.3084 11.3548 25.3408 12.4516 25.9352C13.6129 26.5609 15.0323 26.5922 16.1613 25.9978C16.2903 25.9352 16.4194 25.8726 16.5161 25.7788C16.8387 25.5598 17.2903 25.6223 17.5484 25.8726C17.9032 26.2168 17.8387 26.7799 17.4516 27.0615C17.2903 27.1866 17.0968 27.2804 16.9032 27.3743C15.2903 28.219 13.2581 28.1564 11.6452 27.2804C10.0968 26.4358 9.12903 24.9341 9 23.1508C9 23.0257 9 22.9006 9 22.8067V15.9553C9 14.9855 9.41935 14.0782 10.1613 13.4525L16.7419 7.82123C18.0323 6.72626 19.9677 6.72626 21.2581 7.82123L27.8387 13.4525C28.5806 14.0782 29 14.9855 29 15.9553V22.8067C29 22.9318 29 23.057 29 23.1508C28.871 25.1531 27.5806 26.8737 25.6129 27.6246C24.9677 27.8749 24.2903 28 23.6129 28Z"
      fill="white" />
  </symbol>

  <symbol id="map-icon-big" width="99" height="158" viewBox="0 0 99 158" fill="none" xmlns="http://www.w3.org/2000/svg">
    <path
      d="M92.4001 48.7168C92.4001 72.7137 72.8977 92.1669 48.8401 92.1669C24.7824 92.1669 5.28001 72.7137 5.28001 48.7168C5.28001 24.7199 24.7824 5.26668 48.8401 5.26668C72.8977 5.26668 92.4001 24.7199 92.4001 48.7168Z"
      fill="#FFAD5E" />
    <path
      d="M49.5027 0C22.208 0 0 21.998 0 49.0346V49.3884C0 62.4863 5.14847 74.7995 14.4987 84.064L18.7555 88.2819C33.3617 102.749 42.7428 121.083 45.8837 141.307C46.1617 143.088 47.6818 144.382 49.5 144.382C51.3182 144.382 52.841 143.088 53.1163 141.307C56.2599 121.083 65.641 102.749 80.2445 88.2819L84.5013 84.064C93.8515 74.8022 99 62.4863 99 49.3884V49.0346C99.0054 21.998 76.7974 0 49.5027 0ZM49.5027 87.1725C28.2709 87.1725 11.0006 70.0655 11.0006 49.0346C11.0006 28.0036 28.2709 10.8966 49.5027 10.8966C70.7344 10.8966 88.0048 28.0036 88.0048 49.0346C88.0048 70.0655 70.7344 87.1725 49.5027 87.1725Z"
      fill="#FFAD5E" />
    <path
      d="M64.8593 127.494C63.4682 127.062 62.0133 127.859 61.591 129.253C61.1313 130.77 62.07 132.336 63.5784 132.825C69.96 134.894 74.2525 138.272 74.2525 141.655C74.2525 146.809 64.0885 152.552 49.5012 152.552C34.9138 152.552 24.7498 146.809 24.7498 141.655C24.7498 138.273 29.0406 134.893 35.4221 132.827C36.9325 132.339 37.8737 130.772 37.4129 129.252C36.9901 127.859 35.5349 127.062 34.1438 127.493C25.0093 130.326 19.2495 135.614 19.2495 141.655C19.2495 150.818 32.5383 158 49.5012 158C66.464 158 79.7528 150.818 79.7528 141.655C79.7528 135.617 73.9933 130.329 64.8593 127.494Z"
      fill="#FFAD5E" />
    <path
      d="M62.3381 73.7337C58.6762 73.7337 55.0994 72.4156 52.3742 69.7793L40.5368 58.7399C38.2374 56.5979 36.7897 53.7145 36.5342 50.831C36.4491 50.2544 36.4491 49.6777 36.5342 49.101C36.8749 42.0984 43.0065 36.4139 50.2452 36.4139H50.3304C57.8246 36.4963 63.9562 42.4279 63.9562 49.6777V49.7601C63.9562 53.1378 62.5936 56.3508 60.0388 58.6575L56.7175 61.7881C55.8659 62.6119 54.5033 62.5295 53.6517 61.7057C52.8 60.8819 52.8852 59.5637 53.7368 58.7399L57.0581 55.6093C58.6762 54.044 59.613 51.9844 59.613 49.7601V49.6777C59.613 44.6523 55.4401 40.6154 50.2452 40.5331H50.16C45.1355 40.5331 40.8775 44.4051 40.7071 49.2658C40.7071 49.6777 40.7071 50.0896 40.7071 50.5015C40.8775 52.3963 41.8142 54.2912 43.4323 55.7741L55.2697 66.8135C58.1652 69.5322 62.253 70.2736 66.0852 68.8731C69.7472 67.4726 72.0465 64.4244 72.302 60.7171C72.302 60.47 72.302 60.2228 72.302 59.9757V42.016C72.302 40.6978 71.7059 39.4621 70.6839 38.5558L53.311 23.7268C51.5226 22.1615 48.7975 22.1615 47.0091 23.7268L29.6361 38.5558C28.6142 39.4621 28.0181 40.6978 28.0181 42.016V60.058C28.0181 60.3052 28.0181 60.5523 28.0181 60.7995C28.1884 64.0125 29.9768 66.7311 32.8723 68.2964C35.9381 69.9441 39.6852 70.0265 42.6658 68.4612C43.0065 68.2964 43.3471 68.1316 43.6026 67.8845C44.4542 67.3078 45.6465 67.4726 46.3278 68.1316C47.2646 69.0379 47.0942 70.5208 46.0723 71.2622C45.6465 71.5918 45.1355 71.8389 44.6246 72.0861C40.3665 74.3104 35.0013 74.1457 30.7432 71.8389C26.6555 69.6146 24.1007 65.6601 23.76 60.9643C23.76 60.6347 23.76 60.3052 23.76 60.058V42.016C23.76 39.4621 24.8671 37.0729 26.8258 35.4253L44.1987 20.5962C47.6052 17.7127 52.7149 17.7127 56.1213 20.5962L73.4943 35.4253C75.453 37.0729 76.5601 39.4621 76.5601 42.016V60.058C76.5601 60.3876 76.5601 60.7171 76.5601 60.9643C76.2194 66.2368 72.813 70.7679 67.6181 72.7451C65.9149 73.4042 64.1265 73.7337 62.3381 73.7337Z"
      fill="white" />
  </symbol>

  <symbol id="home" width="20" height="21" viewBox="0 0 20 21" fill="none" xmlns="http://www.w3.org/2000/svg">
    <path
      d="M14.6129 21C13.2258 21 11.871 20.4994 10.8387 19.4983L6.35484 15.3061C5.48387 14.4927 4.93548 13.3978 4.83871 12.3028C4.80645 12.0838 4.80645 11.8648 4.83871 11.6458C4.96774 8.98659 7.29032 6.82793 10.0323 6.82793H10.0645C12.9032 6.85922 15.2258 9.11173 15.2258 11.8648V11.8961C15.2258 13.1788 14.7097 14.3989 13.7419 15.2749L12.4839 16.4637C12.1613 16.7765 11.6452 16.7453 11.3226 16.4324C11 16.1196 11.0323 15.619 11.3548 15.3061L12.6129 14.1173C13.2258 13.5229 13.5806 12.7408 13.5806 11.8961V11.8648C13.5806 9.95643 12 8.42346 10.0323 8.39218H10C8.09677 8.39218 6.48387 9.86257 6.41935 11.7084C6.41935 11.8648 6.41935 12.0212 6.41935 12.1777C6.48387 12.8972 6.83871 13.6168 7.45161 14.1799L11.9355 18.3721C13.0323 19.4045 14.5806 19.686 16.0323 19.1542C17.4194 18.6223 18.2903 17.4648 18.3871 16.057C18.3871 15.9631 18.3871 15.8693 18.3871 15.7754V8.95531C18.3871 8.45475 18.1613 7.98547 17.7742 7.64134L11.1935 2.01006C10.5161 1.41564 9.48387 1.41564 8.80645 2.01006L2.22581 7.64134C1.83871 7.98547 1.6129 8.45475 1.6129 8.95531V15.8067C1.6129 15.9006 1.6129 15.9944 1.6129 16.0883C1.67742 17.3084 2.35484 18.3408 3.45161 18.9352C4.6129 19.5609 6.03226 19.5922 7.16129 18.9978C7.29032 18.9352 7.41935 18.8726 7.51613 18.7788C7.83871 18.5598 8.29032 18.6223 8.54839 18.8726C8.90323 19.2168 8.83871 19.7799 8.45161 20.0615C8.29032 20.1866 8.09677 20.2804 7.90323 20.3743C6.29032 21.219 4.25806 21.1564 2.64516 20.2804C1.09677 19.4358 0.129032 17.9341 0 16.1508C0 16.0257 0 15.9006 0 15.8067V8.95531C0 7.98548 0.419355 7.07821 1.16129 6.45251L7.74194 0.821229C9.03226 -0.273743 10.9677 -0.273743 12.2581 0.821229L18.8387 6.45251C19.5806 7.07821 20 7.98548 20 8.95531V15.8067C20 15.9318 20 16.057 20 16.1508C19.871 18.1531 18.5806 19.8737 16.6129 20.6246C15.9677 20.8749 15.2903 21 14.6129 21Z"
      fill="#3B3B93" />
  </symbol>

  <symbol id="instagram" width="28" height="28" viewBox="0 0 28 28" fill="none" xmlns="http://www.w3.org/2000/svg">
    <path fill-rule="evenodd" clip-rule="evenodd"
      d="M12.7453 2.52294C12.9892 2.52256 13.2515 2.52268 13.5346 2.52281C13.6842 2.52287 13.8397 2.52294 14.0012 2.52294C17.7392 2.52294 18.1823 2.53636 19.6584 2.60344C21.0234 2.66586 21.7642 2.89394 22.2577 3.08557C22.9111 3.33932 23.3769 3.64265 23.8666 4.13265C24.3566 4.62265 24.6599 5.08932 24.9142 5.74265C25.1059 6.23557 25.3342 6.9764 25.3964 8.3414C25.4634 9.81724 25.478 10.2606 25.478 13.9968C25.478 17.7331 25.4634 18.1764 25.3964 19.6522C25.3339 21.0172 25.1059 21.7581 24.9142 22.251C24.6605 22.9043 24.3566 23.3695 23.8666 23.8592C23.3766 24.3492 22.9114 24.6526 22.2577 24.9063C21.7648 25.0988 21.0234 25.3263 19.6584 25.3887C18.1826 25.4558 17.7392 25.4704 14.0012 25.4704C10.2629 25.4704 9.81989 25.4558 8.34406 25.3887C6.97906 25.3257 6.23823 25.0977 5.74444 24.906C5.0911 24.6523 4.62444 24.3489 4.13444 23.8589C3.64444 23.3689 3.3411 22.9034 3.08677 22.2498C2.89514 21.7569 2.66677 21.0161 2.60464 19.6511C2.53756 18.1752 2.52414 17.7319 2.52414 13.9933C2.52414 10.2547 2.53756 9.81374 2.60464 8.3379C2.66706 6.9729 2.89514 6.23207 3.08677 5.73857C3.34052 5.08524 3.64444 4.61857 4.13444 4.12857C4.62444 3.63857 5.0911 3.33524 5.74444 3.0809C6.23794 2.8884 6.97906 2.6609 8.34406 2.59819C9.63556 2.53986 10.1361 2.52236 12.7453 2.51944V2.52294ZM19.7941 6.52706C19.7941 5.59927 20.5466 4.84764 21.4741 4.84764C22.4016 4.84764 23.1541 5.59956 23.1541 6.52706C23.1541 7.45456 22.4016 8.20706 21.4741 8.20706C20.5466 8.20706 19.7941 7.45456 19.7941 6.52706ZM6.81151 13.9998C6.81151 10.0294 10.0306 6.81023 14.0011 6.81023C17.9716 6.81023 21.1895 10.0294 21.1895 13.9998C21.1895 17.9703 17.9716 21.1879 14.0011 21.1879C10.0306 21.1879 6.81151 17.9703 6.81151 13.9998Z"
      fill="#3B3B93" />
    <path
      d="M14.001 9.33352C16.5782 9.33352 18.6677 11.4227 18.6677 14.0002C18.6677 16.5774 16.5782 18.6669 14.001 18.6669C11.4236 18.6669 9.33438 16.5774 9.33438 14.0002C9.33438 11.4227 11.4236 9.33352 14.001 9.33352Z"
      fill="#3B3B93" />
    <path fill-rule="evenodd" clip-rule="evenodd"
      d="M14.0012 0C10.199 0 9.72183 0.016625 8.2285 0.0845833C6.73808 0.152833 5.72075 0.388792 4.83058 0.735C3.90979 1.09258 3.12871 1.57092 2.35054 2.34938C1.57179 3.12754 1.09346 3.90863 0.734708 4.82912C0.387625 5.71958 0.151375 6.73721 0.0842917 8.22704C0.0175 9.72038 0 10.1978 0 14C0 17.8022 0.0169167 18.2779 0.0845833 19.7712C0.153125 21.2616 0.389083 22.279 0.735 23.1691C1.09288 24.0899 1.57121 24.871 2.34967 25.6492C3.12754 26.4279 3.90863 26.9074 4.82883 27.265C5.71958 27.6112 6.73721 27.8472 8.22733 27.9154C9.72067 27.9834 10.1975 28 13.9994 28C17.8019 28 18.2776 27.9834 19.7709 27.9154C21.2613 27.8472 22.2798 27.6112 23.1706 27.265C24.0911 26.9074 24.871 26.4279 25.6489 25.6492C26.4276 24.871 26.906 24.0899 27.2647 23.1694C27.6089 22.279 27.8451 21.2613 27.9151 19.7715C27.9822 18.2782 27.9997 17.8022 27.9997 14C27.9997 10.1978 27.9822 9.72067 27.9151 8.22733C27.8451 6.73692 27.6089 5.71958 27.2647 4.82942C26.906 3.90863 26.4276 3.12754 25.6489 2.34938C24.8701 1.57063 24.0914 1.09229 23.1697 0.735C22.2772 0.388792 21.2593 0.152833 19.7689 0.0845833C18.2755 0.016625 17.8001 0 13.9968 0H14.0012ZM12.7453 2.52294C12.9892 2.52256 13.2515 2.52268 13.5346 2.52281L14.0012 2.52294C17.7392 2.52294 18.1823 2.53636 19.6584 2.60344C21.0234 2.66586 21.7642 2.89394 22.2577 3.08557C22.9111 3.33932 23.3769 3.64265 23.8666 4.13265C24.3566 4.62265 24.6599 5.08932 24.9142 5.74265C25.1059 6.23557 25.3342 6.9764 25.3964 8.3414C25.4634 9.81724 25.478 10.2606 25.478 13.9968C25.478 17.7331 25.4634 18.1764 25.3964 19.6522C25.3339 21.0172 25.1059 21.7581 24.9142 22.251C24.6605 22.9043 24.3566 23.3695 23.8666 23.8592C23.3766 24.3492 22.9114 24.6526 22.2577 24.9063C21.7648 25.0988 21.0234 25.3263 19.6584 25.3887C18.1826 25.4558 17.7392 25.4704 14.0012 25.4704C10.2629 25.4704 9.81989 25.4558 8.34406 25.3887C6.97906 25.3257 6.23823 25.0977 5.74444 24.906C5.0911 24.6523 4.62444 24.3489 4.13444 23.8589C3.64444 23.3689 3.3411 22.9034 3.08677 22.2498C2.89514 21.7569 2.66677 21.0161 2.60464 19.6511C2.53756 18.1752 2.52414 17.7319 2.52414 13.9933C2.52414 10.2547 2.53756 9.81374 2.60464 8.3379C2.66706 6.9729 2.89514 6.23207 3.08677 5.73857C3.34052 5.08524 3.64444 4.61857 4.13444 4.12857C4.62444 3.63857 5.0911 3.33524 5.74444 3.0809C6.23794 2.8884 6.97906 2.6609 8.34406 2.59819C9.63556 2.53986 10.1361 2.52236 12.7453 2.51944V2.52294Z"
      fill="#3B3B93" />
  </symbol>

  <symbol id="twitter" width="34" height="28" viewBox="0 0 34 28" fill="none" xmlns="http://www.w3.org/2000/svg">
    <path fill-rule="evenodd" clip-rule="evenodd"
      d="M16.0675 7.44844L16.1393 8.65952L14.9438 8.51122C10.5921 7.94276 6.79044 6.01492 3.56259 2.77713L1.98453 1.1706L1.57806 2.35696C0.7173 5.00156 1.26723 7.79446 3.06048 9.67287C4.01688 10.7109 3.80169 10.8592 2.1519 10.2413C1.57806 10.0436 1.07595 9.89531 1.02813 9.96946C0.86076 10.1425 1.4346 12.3916 1.88889 13.2814C2.51055 14.5172 3.77778 15.7283 5.16456 16.445L6.33615 17.0135L4.94937 17.0382C3.61041 17.0382 3.56259 17.0629 3.70605 17.582C4.18425 19.1885 6.07314 20.8939 8.17722 21.6354L9.65964 22.1544L8.3685 22.9453C6.4557 24.0822 4.20816 24.7248 1.96062 24.7743C0.88467 24.799 0 24.8979 0 24.972C0 25.2192 2.91702 26.6033 4.61463 27.147C9.70746 28.7535 15.7567 28.0615 20.2996 25.318C23.5274 23.3655 26.7553 19.4851 28.2616 15.7283C29.0746 13.7263 29.8875 10.0683 29.8875 8.31349C29.8875 7.17656 29.9592 7.02827 31.2982 5.66889C32.0872 4.87798 32.8284 4.01293 32.9719 3.76577C33.211 3.29617 33.1871 3.29617 31.9677 3.71634C29.9353 4.45781 29.6484 4.35895 30.6526 3.24674C31.3938 2.45583 32.2785 1.02231 32.2785 0.602135C32.2785 0.527987 31.9199 0.651567 31.5134 0.87401C31.083 1.12117 30.1266 1.49191 29.4093 1.71435L28.1182 2.13452L26.9466 1.3189C26.301 0.87401 25.3924 0.379692 24.9142 0.231396C23.6948 -0.114626 21.8298 -0.0651944 20.73 0.33026C17.7412 1.44248 15.8523 4.30952 16.0675 7.44844Z"
      fill="#3B3B93" />
  </symbol>


  <symbol id="facebook" width="14" height="28" viewBox="0 0 14 28" fill="none" xmlns="http://www.w3.org/2000/svg">
    <path fill-rule="evenodd" clip-rule="evenodd"
      d="M8.6875 28V13.9984H12.5526L13.0648 9.17332H8.6875L8.69407 6.75834C8.69407 5.49989 8.81364 4.82559 10.6211 4.82559H13.0374V0H9.1718C4.52858 0 2.89428 2.34066 2.89428 6.27693V9.17386H0V13.9989H2.89428V28H8.6875Z"
      fill="#3B3B93" />
  </symbol>

  <symbol id="close-btn" width="27" height="27" viewBox="0 0 27 27" fill="none" xmlns="http://www.w3.org/2000/svg">
    <path
      d="M25.8955 27C25.65 27 25.1591 27 24.9136 26.7534L0.368182 2.09589C-0.122727 1.60274 -0.122727 0.863014 0.368182 0.369863C0.859091 -0.123288 1.59545 -0.123288 2.08636 0.369863L26.6318 25.0274C27.1227 25.5205 27.1227 26.2603 26.6318 26.7534C26.6318 27 26.1409 27 25.8955 27Z"
      fill="#3B3B93" />
    <path
      d="M1.35 27C1.10454 27 0.613636 27 0.368182 26.7534C-0.122727 26.2603 -0.122727 25.5205 0.368182 25.0274L24.9136 0.369863C25.4045 -0.123288 26.1409 -0.123288 26.6318 0.369863C27.1227 0.863014 27.1227 1.60274 26.6318 2.09589L2.08636 26.7534C2.08636 27 1.59545 27 1.35 27Z"
      fill="#3B3B93" />
  </symbol>


</svg>