<svg width="34" height="28" viewBox="0 0 34 28" fill="none" xmlns="http://www.w3.org/2000/svg">
<path fill-rule="evenodd" clip-rule="evenodd" d="M16.0675 7.44844L16.1393 8.65952L14.9438 8.51122C10.5921 7.94276 6.79044 6.01492 3.56259 2.77713L1.98453 1.1706L1.57806 2.35696C0.7173 5.00156 1.26723 7.79446 3.06048 9.67287C4.01688 10.7109 3.80169 10.8592 2.1519 10.2413C1.57806 10.0436 1.07595 9.89531 1.02813 9.96946C0.86076 10.1425 1.4346 12.3916 1.88889 13.2814C2.51055 14.5172 3.77778 15.7283 5.16456 16.445L6.33615 17.0135L4.94937 17.0382C3.61041 17.0382 3.56259 17.0629 3.70605 17.582C4.18425 19.1885 6.07314 20.8939 8.17722 21.6354L9.65964 22.1544L8.3685 22.9453C6.4557 24.0822 4.20816 24.7248 1.96062 24.7743C0.88467 24.799 0 24.8979 0 24.972C0 25.2192 2.91702 26.6033 4.61463 27.147C9.70746 28.7535 15.7567 28.0615 20.2996 25.318C23.5274 23.3655 26.7553 19.4851 28.2616 15.7283C29.0746 13.7263 29.8875 10.0683 29.8875 8.31349C29.8875 7.17656 29.9592 7.02827 31.2982 5.66889C32.0872 4.87798 32.8284 4.01293 32.9719 3.76577C33.211 3.29617 33.1871 3.29617 31.9677 3.71634C29.9353 4.45781 29.6484 4.35895 30.6526 3.24674C31.3938 2.45583 32.2785 1.02231 32.2785 0.602135C32.2785 0.527987 31.9199 0.651567 31.5134 0.87401C31.083 1.12117 30.1266 1.49191 29.4093 1.71435L28.1182 2.13452L26.9466 1.3189C26.301 0.87401 25.3924 0.379692 24.9142 0.231396C23.6948 -0.114626 21.8298 -0.0651944 20.73 0.33026C17.7412 1.44248 15.8523 4.30952 16.0675 7.44844Z" fill="#3B3B93"/>
</svg>
