<svg width="28" height="28" viewBox="0 0 28 28" fill="none" xmlns="http://www.w3.org/2000/svg">
<path d="M27 4.6103H12.8334" stroke="white" stroke-width="2" stroke-miterlimit="10" stroke-linecap="round" stroke-linejoin="round"/>
<path d="M5.16667 4.6103H1" stroke="white" stroke-width="2" stroke-miterlimit="10" stroke-linecap="round" stroke-linejoin="round"/>
<path d="M8.95969 8.21911C10.9544 8.21692 12.5696 6.59992 12.5674 4.60748C12.5652 2.61504 10.9464 1.00164 8.95175 1.00383C6.95709 1.00602 5.34186 2.62298 5.34406 4.61542C5.34625 6.60786 6.96502 8.22131 8.95969 8.21911Z" stroke="white" stroke-width="2" stroke-miterlimit="10" stroke-linecap="round" stroke-linejoin="round"/>
<path d="M1 14.0014H15.1667" stroke="white" stroke-width="2" stroke-miterlimit="10" stroke-linecap="round" stroke-linejoin="round"/>
<path d="M22.8334 14.0014H27" stroke="white" stroke-width="2" stroke-miterlimit="10" stroke-linecap="round" stroke-linejoin="round"/>
<path d="M18.9859 17.6107C20.9806 17.6085 22.5958 15.9915 22.5936 13.9991C22.5914 12.0067 20.9727 10.3932 18.978 10.3954C16.9833 10.3976 15.3681 12.0146 15.3703 14.007C15.3725 15.9995 16.9913 17.6129 18.9859 17.6107Z" stroke="white" stroke-width="2" stroke-miterlimit="10" stroke-linecap="round" stroke-linejoin="round"/>
<path d="M27 23.3926H12.8334" stroke="white" stroke-width="2" stroke-miterlimit="10" stroke-linecap="round" stroke-linejoin="round"/>
<path d="M5.16667 23.3926H1" stroke="white" stroke-width="2" stroke-miterlimit="10" stroke-linecap="round" stroke-linejoin="round"/>
<path d="M8.98667 26.9999C10.9813 26.9999 12.5983 25.3847 12.5983 23.3923C12.5983 21.3999 10.9813 19.7847 8.98667 19.7847C6.992 19.7847 5.375 21.3999 5.375 23.3923C5.375 25.3847 6.992 26.9999 8.98667 26.9999Z" stroke="white" stroke-width="2" stroke-miterlimit="10" stroke-linecap="round" stroke-linejoin="round"/>
</svg>
